# xmcd
#
# Track frame offsets:
#	182
#	22595
#	42805
#	60530
#	75432
#	91527
#	108810
#	129112
#	151882
#	173282
#	196897
#
# Disc length: 2792 seconds
#
# Revision: 4
# Processed by: cddbd v1.5.2PL0 Copyright (c) Steve Scherf et al.
# Submitted via: EasyCDDAExtractor 16.0.6.1
#
DISCID=5f0ae60b
DTITLE=Diane Schuur and B. B. King - B-009 Heart To Heart
DYEAR=1975
DGENRE=Blues
TTITLE0=No One Ever Tells You
TTITLE1=I Can't Stop Loving You
TTITLE2=You Don't Know Me
TTITLE3=It Had to Be You
TTITLE4=I'm Putting All My Eggs in One Basket
TTITLE5=Glory of Love
TTITLE6=Try a Little Tenderness
TTITLE7=Spirit in the Dark
TTITLE8=Freedom
TTITLE9=At Last
TTITLE10=They Can't Take That Away from Me
EXTD=GRP Records
EXTT0=
EXTT1=
EXTT2=
EXTT3=
EXTT4=
EXTT5=
EXTT6=
EXTT7=
EXTT8=
EXTT9=
EXTT10=
PLAYORDER=
